:SAMPLES-PER-SECOND 30
:FULLY-SPECIFIED
:DEGREES
126
root  -18.242 38.366 -5.96697 -178.226 -86.0856 173.185
RightUpLeg  -19.4931 -8.53873 -8.16026
RightLeg  -0.17596 10.4442 -1.23447
RightFoot  -2.65998 -0.658495 8.37026
RightToes  2.91037e-010 0 -3.6325e-017
Spine  12.8158 -1.64096 2.74899
Spine1  11.3681 -1.2188 -1.20454
HEad  2.80909 4.63962 -6.2568
LeftShoulder1  -0.436889 4.64728 -32.0651
LeftArm  11.001 2.08733 -46.5012
LeftForeArm  22.6327 -31.9174 -5.7377
LeftHand  -0.0611782 2.67335 1.98232
RightShoulder  -0.654441 -5.43824 27.1375
RightArm  11.7609 -10.8906 39.2312
RightForeArm  7.90208 19.1567 4.22672
RightHand  -0.40149 3.75439 -5.34797
LeftUpLeg  11.7351 6.0199 -5.06339
LeftLeg  15.5526 -0.428106 0.286093
LeftFoot  -23.2834 1.01102 8.32181
LeftToes  -7.53974e-010 3.3384e-011 -1.25048e-011
127
root  -19.6279 38.0249 -6.49607 172.611 -87.8974 -178.398
RightUpLeg  -20.2435 -8.68029 -8.44181
RightLeg  1.67211 9.76585 -0.916727
RightFoot  -3.53929 -0.443256 6.1611
RightToes  2.91037e-010 0 -3.6325e-017
Spine  13.8927 -2.12597 2.39242
Spine1  11.3966 -2.03493 -0.296967
HEad  2.28028 5.00999 -7.0447
LeftShoulder1  -0.342896 4.40482 -31.9295
LeftArm  11.0179 0.414672 -47.1458
LeftForeArm  21.8059 -30.8999 -5.53649
LeftHand  -0.0922017 1.65567 2.63135
RightShoulder  -0.660913 -5.46535 27.002
RightArm  10.3251 -11.2993 39.0641
RightForeArm  7.77252 20.8713 4.20915
RightHand  -0.473197 4.005 -6.11552
LeftUpLeg  14.8567 5.29841 -4.47954
LeftLeg  15.8656 -1.47517 0.515627
LeftFoot  -25.2249 1.08218 7.61992
LeftToes  -7.53974e-010 3.3384e-011 -1.25048e-011
128
root  -21.1744 37.6707 -7.04264 -53.8765 -89.2982 47.7725
RightUpLeg  -20.9748 -8.40985 -8.38997
RightLeg  7.30415 8.16367 0.424785
RightFoot  -1.22616 -0.583729 6.57629
RightToes  2.91037e-010 0 -3.6325e-017
Spine  13.5287 -3.08921 3.4405
Spine1  12.4973 -3.23919 0.490121
HEad  1.84843 4.80601 -7.49323
LeftShoulder1  -0.380605 4.50584 -31.8279
LeftArm  10.7722 -0.811824 -47.7654
LeftForeArm  22.4441 -30.2868 -5.35456
LeftHand  -0.0576316 2.44506 1.80921
RightShoulder  -0.616175 -5.33049 27.01
RightArm  9.29112 -11.3635 38.5652
RightForeArm  7.45176 21.6266 4.29852
RightHand  -0.485481 4.36929 -6.05419
LeftUpLeg  17.2961 2.58277 -3.24426
LeftLeg  17.04 -1.3046 0.861505
LeftFoot  -27.1254 1.1414 7.04216
LeftToes  -7.53974e-010 3.3384e-011 -1.25048e-011
129
root  -22.7314 37.3281 -7.57349 26.8322 -87.2647 -32.5951
RightUpLeg  -23.1311 -7.31084 -7.8218
RightLeg  14.9205 6.31431 1.51679
RightFoot  4.9148 -0.956727 6.94751
RightToes  2.91037e-010 0 -3.6325e-017
Spine  13.6985 -3.59323 5.5366
Spine1  12.1226 -3.73804 1.19753
HEad  1.73234 4.57826 -8.17683
LeftShoulder1  -0.459137 4.69955 -32.2738
LeftArm  11.0261 -1.17353 -47.8559
LeftForeArm  22.8071 -29.7338 -5.20379
LeftHand  -0.0539569 1.9248 1.47713
RightShoulder  -0.666596 -5.47225 27.1728
RightArm  9.10371 -11.4108 37.3248
RightForeArm  7.53418 21.9991 4.34021
RightHand  -0.487481 3.88032 -6.35949
LeftUpLeg  18.2097 -1.99386 -2.46301
LeftLeg  19.8712 1.51391 1.22524
LeftFoot  -28.4628 0.90345 4.9193
LeftToes  -7.53974e-010 3.3384e-011 -1.25048e-011
130
root  -24.2869 36.9483 -8.05596 30.1374 -85.7424 -36.1024
RightUpLeg  -24.669 -7.16717 -6.78022
RightLeg  23.1956 5.44919 2.39727
RightFoot  3.90511 -1.14792 8.7241
RightToes  2.91037e-010 0 -3.6325e-017
Spine  14.7206 -4.13463 8.68189
Spine1  11.5515 -3.60346 0.416769
HEad  1.31065 4.03969 -9.07335
LeftShoulder1  -0.370072 4.46146 -32.4915
LeftArm  9.79014 -0.352832 -47.9815
LeftForeArm  23.7738 -29.7724 -5.15901
LeftHand  -0.0763773 0.728811 1.82597
RightShoulder  -0.684273 -5.50639 27.4898
RightArm  8.87108 -10.1947 36.4538
RightForeArm  7.63699 20.5039 4.15517
RightHand  -0.455291 4.12813 -5.81602
LeftUpLeg  17.9239 -3.82708 -0.62912
LeftLeg  26.3244 1.73512 1.21506
LeftFoot  -28.9132 0.215531 0.212214
LeftToes  -7.53974e-010 3.3384e-011 -1.25048e-011
131
root  -25.7021 36.794 -8.48136 34.9034 -84.7647 -41.1235
RightUpLeg  -25.3276 -7.54995 -5.26242
RightLeg  29.4173 5.7186 3.2267
RightFoot  1.87574 -0.59889 5.27344
RightToes  2.91037e-010 0 -3.6325e-017
Spine  15.8003 -4.4957 11.6659
Spine1  12.0282 -3.26586 0.309512
HEad  1.34204 4.19354 -9.64069
LeftShoulder1  -0.277758 4.22962 -32.1424
LeftArm  9.5947 0.40584 -48.3213
LeftForeArm  23.0887 -29.2647 -5.0806
LeftHand  -0.0763698 1.46281 2.08578
RightShoulder  -0.605627 -5.28829 27.2118
RightArm  9.07795 -7.82983 36.7524
RightForeArm  5.43277 16.9234 4.12629
RightHand  -0.571081 5.18556 -6.56277
LeftUpLeg  15.5079 -2.54343 2.13107
LeftLeg  35.2964 0.663088 0.855252
LeftFoot  -24.5668 -0.390152 -5.02848
LeftToes  -7.53974e-010 3.3384e-011 -1.25048e-011
132
root  -27.0289 36.754 -8.92643 29.2808 -82.9596 -35.1442
RightUpLeg  -25.2252 -8.33653 -4.33688
RightLeg  33.5842 4.5729 3.01908
RightFoot  -1.8859 -0.368181 4.3205
RightToes  2.91037e-010 0 -3.6325e-017
Spine  16.2604 -4.92572 13.439
Spine1  12.2469 -3.40384 1.21217
HEad  1.39051 3.74276 -9.36991
LeftShoulder1  -0.246433 4.15228 -31.8798
LeftArm  11.575 0.388686 -48.1852
LeftForeArm  21.0066 -27.8852 -4.87728
LeftHand  -0.0804187 2.17408 2.48622
RightShoulder  -0.565949 -5.19357 26.7127
RightArm  7.93028 -5.49653 37.3594
RightForeArm  5.76015 13.8974 4.20658
RightHand  -0.615415 5.54796 -6.81346
LeftUpLeg  9.25744 -0.977449 4.82021
LeftLeg  47.1826 1.47769 2.31127
LeftFoot  -13.013 -0.14521 -6.71243
LeftToes  -7.53974e-010 3.3384e-011 -1.25048e-011
